<svg width="35" height="35" viewBox="0 0 35 35" fill="none" xmlns="http://www.w3.org/2000/svg">
<path d="M9.23272 11.6667H25.7688C26.1893 11.6666 26.6049 11.7575 26.987 11.9331C27.3691 12.1087 27.7087 12.3648 27.9826 12.684C28.2564 13.0031 28.458 13.3777 28.5736 13.7821C28.6891 14.1865 28.7158 14.611 28.6519 15.0267L26.8217 26.915C26.6628 27.9481 26.1393 28.8903 25.3458 29.5708C24.5524 30.2513 23.5416 30.6253 22.4963 30.625H12.5038C11.4587 30.6249 10.4482 30.2508 9.6551 29.5703C8.86198 28.8898 8.33865 27.9479 8.1798 26.915L6.34959 15.0267C6.28567 14.611 6.31239 14.1865 6.42791 13.7821C6.54344 13.3777 6.74504 13.0031 7.01889 12.684C7.29274 12.3648 7.63237 12.1087 8.01449 11.9331C8.39661 11.7575 8.81218 11.6666 9.23272 11.6667Z" stroke="black" stroke-width="2" stroke-linecap="round" stroke-linejoin="round"/>
<path d="M13.125 16.0417V8.75C13.125 7.58968 13.5859 6.47688 14.4064 5.65641C15.2269 4.83594 16.3397 4.375 17.5 4.375C18.6603 4.375 19.7731 4.83594 20.5936 5.65641C21.4141 6.47688 21.875 7.58968 21.875 8.75V16.0417" stroke="black" stroke-width="2" stroke-linecap="round" stroke-linejoin="round"/>
</svg>
