<svg width="35" height="35" viewBox="0 0 35 35" fill="none" xmlns="http://www.w3.org/2000/svg">
<path d="M5.83334 26.25C5.83334 24.7029 6.44792 23.2192 7.54189 22.1252C8.63585 21.0313 10.1196 20.4167 11.6667 20.4167H23.3333C24.8804 20.4167 26.3642 21.0313 27.4581 22.1252C28.5521 23.2192 29.1667 24.7029 29.1667 26.25C29.1667 27.0236 28.8594 27.7654 28.3124 28.3124C27.7654 28.8594 27.0236 29.1667 26.25 29.1667H8.75001C7.97646 29.1667 7.2346 28.8594 6.68762 28.3124C6.14063 27.7654 5.83334 27.0236 5.83334 26.25Z" stroke="black" stroke-width="1.875" stroke-linejoin="round"/>
<path d="M17.5 14.5833C19.9162 14.5833 21.875 12.6246 21.875 10.2083C21.875 7.7921 19.9162 5.83334 17.5 5.83334C15.0838 5.83334 13.125 7.7921 13.125 10.2083C13.125 12.6246 15.0838 14.5833 17.5 14.5833Z" stroke="black" stroke-width="1.875"/>
</svg>
